<svg xmlns="http://www.w3.org/2000/svg" width="145" height="60" viewBox="0 0 145 60">
  <g id="Bulk_color" transform="translate(5709.693 -10281)">
    <rect id="Rectangle_181" data-name="Rectangle 181" width="145" height="60" transform="translate(-5709.693 10281)" fill="none"/>
    <g id="Page-1" transform="translate(-5694.442 10294.189)">
      <g id="Meal-Plan---desktop" transform="translate(0.835 0.31)">
        <path id="BULK" d="M325.516,4493.975q5.275,0,8.224-2.469a8.825,8.825,0,0,0,1.175-11.894,7.832,7.832,0,0,0-4.7-2.9,8.059,8.059,0,0,0,4.148-2.733,8.521,8.521,0,0,0-1.343-11.318q-2.9-2.35-8.033-2.35H309.835v33.665Zm-2.11-20h-5.371v-7.194h5.371a4.587,4.587,0,0,1,3.093.935,3.391,3.391,0,0,1,1.079,2.709,3.259,3.259,0,0,1-1.079,2.638,4.668,4.668,0,0,1-3.093.912Zm.671,13.475h-6.042v-7.577h5.947a4.742,4.742,0,0,1,3.237,1.031,3.541,3.541,0,0,1,1.175,2.806,3.45,3.45,0,0,1-1.127,2.781,4.778,4.778,0,0,1-3.189.959Zm31.123,6.858a16.211,16.211,0,0,0,7.217-1.583,12.277,12.277,0,0,0,5.155-4.7,14.282,14.282,0,0,0,1.918-7.625h0V4460.31h-8.2V4480.4a6.53,6.53,0,0,1-1.535,4.651,5.766,5.766,0,0,1-4.412,1.631,5.608,5.608,0,0,1-4.364-1.631,6.663,6.663,0,0,1-1.487-4.651h0V4460.31h-8.2V4480.4a15,15,0,0,0,1.822,7.648,11.617,11.617,0,0,0,4.963,4.7A15.814,15.814,0,0,0,355.2,4494.311Zm38.988-.336v-6.234H383.447v-27.43h-8.2v33.665Zm12.133,0v-14.866l11.318,14.866h10.023l-13.523-17.167,13.044-16.5h-9.639l-11.222,14.771V4460.31h-8.2v33.665Z" transform="translate(-309.835 -4460.31)" fill="#00bf6f"/>
      </g>
    </g>
  </g>
</svg>
