<svg xmlns="http://www.w3.org/2000/svg" width="149" height="60" viewBox="0 0 149 60">
  <g id="Vegan_S__color" data-name="Vegan S _color" transform="translate(6391 -10281)">
    <rect id="Rectangle_178" data-name="Rectangle 178" width="149" height="60" transform="translate(-6391 10281)" fill="none"/>
    <g id="Vegan_S__color-2" data-name="Vegan S _color" transform="translate(-6374 10289.5)">
      <g id="Group_22_Copy" data-name="Group 22 Copy" transform="translate(0 9.048)">
        <path id="Vegan" d="M55.767,34.577a20.96,20.96,0,0,1-3.275-.832l.874-4.08a14.908,14.908,0,0,0,2.8.832,17.256,17.256,0,0,0,3.4.317,5.873,5.873,0,0,0,4.13-1.188A4.705,4.705,0,0,0,64.92,26.1v-.792a12.629,12.629,0,0,1-1.886.713,9.248,9.248,0,0,1-2.68.356,10.1,10.1,0,0,1-3.633-.634A7.662,7.662,0,0,1,53.9,23.883a8.532,8.532,0,0,1-1.826-3.069,12.76,12.76,0,0,1-.655-4.258,12.089,12.089,0,0,1,.7-4.159A8.926,8.926,0,0,1,54.14,9.149a9.3,9.3,0,0,1,3.236-2.1A11.754,11.754,0,0,1,61.7,6.3a26.727,26.727,0,0,1,4.447.356c1.391.236,2.593.489,3.574.752V25.348c0,3.285-.849,5.723-2.521,7.248s-4.272,2.3-7.723,2.3A21.586,21.586,0,0,1,55.767,34.577Zm1.965-22.556a7.033,7.033,0,0,0-1.389,4.535,6.348,6.348,0,0,0,1.33,4.456,4.534,4.534,0,0,0,3.434,1.405,7.227,7.227,0,0,0,2.164-.317,6.218,6.218,0,0,0,1.648-.752V10.614c-.342-.078-.769-.152-1.27-.218a15.308,15.308,0,0,0-1.906-.1A4.873,4.873,0,0,0,57.733,12.021ZM34.664,27.15a8.906,8.906,0,0,1-3.335-2.258,9.291,9.291,0,0,1-1.946-3.406,13.938,13.938,0,0,1-.635-4.3,13.034,13.034,0,0,1,.815-4.792,10.108,10.108,0,0,1,2.163-3.426,9.012,9.012,0,0,1,3.1-2.059A9.662,9.662,0,0,1,38.4,6.218a8.6,8.6,0,0,1,6.691,2.654c1.594,1.76,2.4,4.426,2.4,7.921,0,.263-.006.563-.019.891s-.034.634-.06.891h-13.7a5.479,5.479,0,0,0,1.767,3.861A6.756,6.756,0,0,0,40.024,23.8a15.086,15.086,0,0,0,3.2-.317,13.232,13.232,0,0,0,2.283-.674l.635,3.921a7.683,7.683,0,0,1-1.092.416,15.386,15.386,0,0,1-1.589.4c-.595.119-1.243.219-1.925.3a18.615,18.615,0,0,1-2.1.119A12.813,12.813,0,0,1,34.664,27.15ZM36.49,10.635a4.443,4.443,0,0,0-1.409,1.089,4.984,4.984,0,0,0-.894,1.545,8.32,8.32,0,0,0-.436,1.782h8.933a6.319,6.319,0,0,0-.277-1.881,4.561,4.561,0,0,0-.815-1.544,3.863,3.863,0,0,0-1.31-1.03,4.205,4.205,0,0,0-1.847-.377A4.323,4.323,0,0,0,36.49,10.635ZM79.333,27.526a7.214,7.214,0,0,1-2.641-1.148,5.44,5.44,0,0,1-1.707-2.059,7.158,7.158,0,0,1-.616-3.129,6.052,6.052,0,0,1,.7-3.01,5.71,5.71,0,0,1,1.886-2,8.222,8.222,0,0,1,2.759-1.11,15.683,15.683,0,0,1,3.276-.336,15.007,15.007,0,0,1,1.667.1,15.718,15.718,0,0,1,1.866.337v-.792a6.222,6.222,0,0,0-.2-1.584,3.308,3.308,0,0,0-.7-1.327,3.268,3.268,0,0,0-1.31-.891,5.724,5.724,0,0,0-2.045-.317,18.288,18.288,0,0,0-3.057.238,13.529,13.529,0,0,0-2.263.554l-.6-3.882a19.157,19.157,0,0,1,2.66-.634,21.043,21.043,0,0,1,3.732-.317,11.834,11.834,0,0,1,4.01.594,6.434,6.434,0,0,1,2.6,1.664,6.259,6.259,0,0,1,1.39,2.594,12.725,12.725,0,0,1,.417,3.347V26.972c-.742.158-1.871.352-3.355.575a34.422,34.422,0,0,1-5.062.337A15.258,15.258,0,0,1,79.333,27.526ZM82.092,18.3a5.025,5.025,0,0,0-1.469.436,2.673,2.673,0,0,0-1.052.891,2.5,2.5,0,0,0-.4,1.446,2.541,2.541,0,0,0,1.072,2.357,5.563,5.563,0,0,0,2.9.654,18.012,18.012,0,0,0,3.375-.238V18.536a9.367,9.367,0,0,0-1.151-.238A10.8,10.8,0,0,0,83.7,18.18,11.14,11.14,0,0,0,82.092,18.3Zm27.5,9.148V16.555a15.7,15.7,0,0,0-.218-2.832,5.01,5.01,0,0,0-.714-1.9,2.846,2.846,0,0,0-1.35-1.069,5.691,5.691,0,0,0-2.084-.337,16.053,16.053,0,0,0-1.906.119q-.993.119-1.469.2V27.447h-4.8V7.406a32.379,32.379,0,0,1,3.613-.752,31.234,31.234,0,0,1,4.923-.356,11.344,11.344,0,0,1,4.249.693,6.632,6.632,0,0,1,2.72,1.94,7.4,7.4,0,0,1,1.429,3.01,16.769,16.769,0,0,1,.417,3.861V27.447Zm-98.709,0Q7.9,21.032,5.142,14.021T0,0H5.519q.953,2.772,1.946,5.664T9.45,11.347q.993,2.792,1.986,5.406t1.945,4.792q.914-2.178,1.906-4.772t2.005-5.407Q18.3,8.556,19.3,5.664T21.2,0h5.361Q24.141,7.01,21.4,14.021T15.684,27.447Z" transform="translate(0 0)" fill="#7a9560"/>
      </g>
      <path id="STANDARD" d="M64.342,9.879l-1.805,0V0h3.381A3.684,3.684,0,0,1,67.7.4a2.7,2.7,0,0,1,1.1,1.09,3.22,3.22,0,0,1,.368,1.536,3.148,3.148,0,0,1-.516,1.761,2.652,2.652,0,0,1-1.536,1.082l2.154,4H67.181L65.195,6.028h-.852V9.879Zm.119-4.94h1.468A1.356,1.356,0,0,0,67,4.541a1.593,1.593,0,0,0,.351-1.091A1.572,1.572,0,0,0,67,2.365a1.374,1.374,0,0,0-1.067-.389H64.461ZM52.9,9.878H50.991L54.259,0h2.123L59.65,9.877H57.723L57.124,8H53.5l-.6,1.879h0Zm.973-3.952h2.886l-1.443-3.95ZM20.194,9.878H18.28L21.548,0h2.123l3.267,9.876H25.012L24.413,8h-3.62l-.6,1.879h0Zm.973-3.952h2.886l-1.443-3.95ZM73.119,9.877V0h3.069a4.791,4.791,0,0,1,2.434.607,4.125,4.125,0,0,1,1.622,1.734,5.7,5.7,0,0,1,.572,2.61,5.615,5.615,0,0,1-.572,2.6,4.135,4.135,0,0,1-1.622,1.72,4.79,4.79,0,0,1-2.434.609ZM75.227,8.23h1.048A2.142,2.142,0,0,0,78.069,7.4a3.707,3.707,0,0,0,.64-2.3,3.713,3.713,0,0,0-.634-2.291,2.139,2.139,0,0,0-1.8-.83H75.227ZM41.371,9.877V0h3.069a4.786,4.786,0,0,1,2.433.607,4.125,4.125,0,0,1,1.622,1.734,5.7,5.7,0,0,1,.572,2.61,5.615,5.615,0,0,1-.572,2.6,4.135,4.135,0,0,1-1.622,1.72,4.783,4.783,0,0,1-2.433.609ZM43.478,8.23h1.047A2.143,2.143,0,0,0,46.319,7.4a3.706,3.706,0,0,0,.641-2.3,3.71,3.71,0,0,0-.635-2.291,2.139,2.139,0,0,0-1.8-.83H43.478ZM35.717,9.877,31.63,3.109V9.877h-1.8V0h1.8l4.087,6.783V0h1.805V9.877Zm-23.649,0V1.557H9.621V0h6.734V1.557H13.909V9.877ZM1.7,9.532A2.9,2.9,0,0,1,.466,8.537,2.69,2.69,0,0,1,0,7H2a1.432,1.432,0,0,0,.407.967,1.37,1.37,0,0,0,1,.36A1.485,1.485,0,0,0,4.432,8,1.123,1.123,0,0,0,4.8,7.114a1,1,0,0,0-.253-.7,1.763,1.763,0,0,0-.632-.436,10.3,10.3,0,0,0-1.045-.352A11.005,11.005,0,0,1,1.4,5.077a2.6,2.6,0,0,1-.971-.815A2.388,2.388,0,0,1,.027,2.8,2.681,2.681,0,0,1,.439,1.312,2.649,2.649,0,0,1,1.6.339,4.083,4.083,0,0,1,3.3,0,3.605,3.605,0,0,1,5.637.725a2.725,2.725,0,0,1,.992,2.024H4.578a1.16,1.16,0,0,0-.406-.864,1.5,1.5,0,0,0-1-.324,1.244,1.244,0,0,0-.872.3,1.128,1.128,0,0,0-.326.878.887.887,0,0,0,.246.642,1.87,1.87,0,0,0,.613.415,10.793,10.793,0,0,0,1.031.366,10.559,10.559,0,0,1,1.477.553,2.681,2.681,0,0,1,.985.829,2.366,2.366,0,0,1,.412,1.451,2.808,2.808,0,0,1-.385,1.436A2.768,2.768,0,0,1,5.218,9.484a3.74,3.74,0,0,1-1.771.394A4.269,4.269,0,0,1,1.7,9.532Z" transform="translate(31.173)" fill="#7a9560"/>
    </g>
  </g>
</svg>
